<svg width="32" height="32" viewBox="0 0 32 32" fill="none" xmlns="http://www.w3.org/2000/svg">
<path d="M30 20V23C30 23.5304 29.7893 24.0391 29.4142 24.4142C29.0391 24.7893 28.5304 25 28 25H14.4375C14.3446 25 14.2536 24.9741 14.1746 24.9253C14.0956 24.8765 14.0318 24.8066 13.9903 24.7236C13.9488 24.6405 13.9312 24.5476 13.9395 24.4551C13.9479 24.3626 13.9818 24.2743 14.0375 24.2L22.25 13.5C22.4137 13.2923 22.4909 13.0293 22.4652 12.7661C22.4396 12.5028 22.3132 12.2597 22.1125 12.0875C22.0098 12.0011 21.8905 11.9365 21.762 11.8978C21.6335 11.859 21.4984 11.8469 21.365 11.8621C21.2317 11.8773 21.1028 11.9196 20.9863 11.9862C20.8698 12.0529 20.7681 12.1427 20.6875 12.25L11.05 24.8C11.0061 24.8618 10.948 24.9123 10.8806 24.9471C10.8131 24.9819 10.7384 25 10.6625 25H4C3.46957 25 2.96086 24.7893 2.58579 24.4142C2.21071 24.0391 2 23.5304 2 23V20.1375C2.00238 19.2058 2.09447 18.2765 2.275 17.3625L5.1125 18.125L5.375 18.15C5.60122 18.1501 5.8208 18.0736 5.99789 17.9328C6.17497 17.792 6.2991 17.5954 6.35 17.375C6.40645 17.1166 6.35959 16.8464 6.21944 16.6222C6.07929 16.398 5.85696 16.2374 5.6 16.175L2.8 15.425C4.625 10.25 9.3625 6.43748 15 6.03748V8.96248C14.9959 9.22197 15.0904 9.47336 15.2644 9.66591C15.4384 9.85847 15.6789 9.97785 15.9375 9.99998C16.074 10.0085 16.2108 9.98899 16.3394 9.94257C16.468 9.89616 16.5858 9.82385 16.6854 9.73013C16.7849 9.63641 16.8643 9.52325 16.9184 9.39767C16.9725 9.27208 17.0003 9.13673 17 8.99998V6.03748C20.354 6.27131 23.5105 7.70969 25.8875 10.0875C27.3913 11.5873 28.5365 13.4076 29.2375 15.4125L26.4 16.175C26.143 16.2374 25.9207 16.398 25.7806 16.6222C25.6404 16.8464 25.5935 17.1166 25.65 17.375C25.7009 17.5954 25.825 17.792 26.0021 17.9328C26.1792 18.0736 26.3988 18.1501 26.625 18.15L26.8875 18.125L29.75 17.35C29.9155 18.2236 29.9992 19.1108 30 20Z" fill="#49536E"/>
</svg>
