<svg width="32" height="32" viewBox="0 0 32 32" fill="none" xmlns="http://www.w3.org/2000/svg">
<path d="M25 19C24.1169 18.9997 23.259 19.2945 22.5625 19.8375L19.675 17.5875C19.8915 17.0864 20.0022 16.5459 20 16C20.0021 15.9082 19.9979 15.8163 19.9875 15.725L21.65 15.175C22.1743 15.977 22.9699 16.5634 23.8912 16.8268C24.8125 17.0902 25.7978 17.0131 26.6669 16.6096C27.5359 16.206 28.2306 15.503 28.6238 14.6292C29.017 13.7554 29.0824 12.7693 28.808 11.8512C28.5337 10.9331 27.9379 10.1445 27.1297 9.62978C26.3216 9.115 25.355 8.90846 24.4071 9.04794C23.4591 9.18741 22.593 9.66359 21.9674 10.3893C21.3417 11.1151 20.9983 12.0418 21 13C20.9979 13.0918 21.0021 13.1837 21.0125 13.275L19.35 13.825C18.9886 13.2651 18.4926 12.8047 17.9074 12.4859C17.3222 12.1671 16.6664 12 16 12C15.7784 12.0037 15.5572 12.0204 15.3375 12.05L14.4875 10.125C14.9603 9.75308 15.3422 9.27841 15.6042 8.73697C15.8663 8.19553 16.0016 7.60153 16 7C16 6.20888 15.7654 5.43552 15.3259 4.77772C14.8864 4.11992 14.2616 3.60723 13.5307 3.30448C12.7998 3.00173 11.9956 2.92252 11.2196 3.07686C10.4437 3.2312 9.73099 3.61216 9.17158 4.17157C8.61217 4.73098 8.2312 5.44372 8.07686 6.21964C7.92252 6.99556 8.00174 7.79983 8.30449 8.53074C8.60724 9.26164 9.11993 9.88635 9.77773 10.3259C10.4355 10.7654 11.2089 11 12 11C12.2216 10.9963 12.4428 10.9796 12.6625 10.95L13.5125 12.875C13.0397 13.2469 12.6578 13.7216 12.3958 14.263C12.1337 14.8045 11.9984 15.3985 12 16C12.0009 16.6342 12.1508 17.2593 12.4375 17.825L9.22501 20.675C8.48387 20.1789 7.5982 19.9447 6.70872 20.0097C5.81924 20.0746 4.97698 20.435 4.31576 21.0335C3.65455 21.6319 3.2123 22.4342 3.05931 23.3129C2.90631 24.1915 3.05133 25.096 3.47133 25.8828C3.89133 26.6695 4.56221 27.2934 5.37738 27.6552C6.19255 28.0169 7.10525 28.0959 7.97045 27.8796C8.83565 27.6632 9.60373 27.1639 10.1526 26.461C10.7015 25.758 10.9998 24.8918 11 24C10.9991 23.3658 10.8492 22.7407 10.5625 22.175L13.775 19.325C14.4708 19.7909 15.2956 20.026 16.1325 19.9968C16.9694 19.9676 17.7758 19.6757 18.4375 19.1625L21.325 21.4125C21.1085 21.9136 20.9978 22.4541 21 23C21 23.7911 21.2346 24.5645 21.6741 25.2223C22.1137 25.8801 22.7384 26.3928 23.4693 26.6955C24.2002 26.9983 25.0044 27.0775 25.7804 26.9231C26.5563 26.7688 27.269 26.3878 27.8284 25.8284C28.3878 25.269 28.7688 24.5563 28.9231 23.7804C29.0775 23.0044 28.9983 22.2002 28.6955 21.4693C28.3928 20.7384 27.8801 20.1136 27.2223 19.6741C26.5645 19.2346 25.7911 19 25 19ZM25 11C25.3956 11 25.7822 11.1173 26.1111 11.3371C26.44 11.5568 26.6964 11.8692 26.8478 12.2346C26.9991 12.6001 27.0387 13.0022 26.9616 13.3902C26.8844 13.7781 26.6939 14.1345 26.4142 14.4142C26.1345 14.6939 25.7781 14.8844 25.3902 14.9616C25.0022 15.0387 24.6001 14.9991 24.2346 14.8478C23.8692 14.6964 23.5568 14.44 23.3371 14.1111C23.1173 13.7822 23 13.3956 23 13C23 12.4696 23.2107 11.9609 23.5858 11.5858C23.9609 11.2107 24.4696 11 25 11ZM10 7C10 6.60444 10.1173 6.21776 10.3371 5.88886C10.5568 5.55996 10.8692 5.30362 11.2346 5.15224C11.6001 5.00087 12.0022 4.96126 12.3902 5.03843C12.7781 5.1156 13.1345 5.30608 13.4142 5.58579C13.6939 5.86549 13.8844 6.22186 13.9616 6.60982C14.0387 6.99778 13.9991 7.39992 13.8478 7.76537C13.6964 8.13082 13.44 8.44318 13.1111 8.66294C12.7822 8.8827 12.3956 9 12 9C11.4696 9 10.9609 8.78929 10.5858 8.41422C10.2107 8.03914 10 7.53044 10 7ZM7.00001 26C6.60444 26 6.21776 25.8827 5.88887 25.6629C5.55997 25.4432 5.30362 25.1308 5.15225 24.7654C5.00087 24.3999 4.96126 23.9978 5.03843 23.6098C5.11561 23.2219 5.30609 22.8655 5.58579 22.5858C5.8655 22.3061 6.22186 22.1156 6.60983 22.0384C6.99779 21.9613 7.39992 22.0009 7.76537 22.1522C8.13083 22.3036 8.44318 22.56 8.66294 22.8889C8.88271 23.2178 9.00001 23.6044 9.00001 24C9.00001 24.5304 8.78929 25.0391 8.41422 25.4142C8.03915 25.7893 7.53044 26 7.00001 26ZM25 25C24.6044 25 24.2178 24.8827 23.8889 24.6629C23.56 24.4432 23.3036 24.1308 23.1522 23.7654C23.0009 23.3999 22.9613 22.9978 23.0384 22.6098C23.1156 22.2219 23.3061 21.8655 23.5858 21.5858C23.8655 21.3061 24.2219 21.1156 24.6098 21.0384C24.9978 20.9613 25.3999 21.0009 25.7654 21.1522C26.1308 21.3036 26.4432 21.56 26.6629 21.8889C26.8827 22.2178 27 22.6044 27 23C27 23.5304 26.7893 24.0391 26.4142 24.4142C26.0391 24.7893 25.5304 25 25 25Z" fill="#49536E"/>
</svg>
