<svg width="32" height="32" viewBox="0 0 32 32" fill="none" xmlns="http://www.w3.org/2000/svg">
<path d="M16 22C21.5228 22 26 17.5228 26 12C26 6.47715 21.5228 2 16 2C10.4772 2 6 6.47715 6 12C6 17.5228 10.4772 22 16 22Z" fill="#49536E"/>
<path d="M25.8993 21.9C26.0717 21.7098 26.1643 21.4606 26.158 21.204C26.1517 20.9473 26.0469 20.703 25.8654 20.5215C25.6839 20.34 25.4395 20.2352 25.1829 20.2289C24.9263 20.2226 24.677 20.3152 24.4868 20.4875C22.2358 22.7386 19.1828 24.0032 15.9993 24.0032C12.8159 24.0032 9.76285 22.7386 7.51182 20.4875C5.2608 18.2365 3.99618 15.1835 3.99618 12C3.99618 8.8166 5.2608 5.76356 7.51182 3.51253C7.61221 3.42157 7.69307 3.31117 7.74949 3.18801C7.80592 3.06486 7.83673 2.93152 7.84007 2.7961C7.8434 2.66067 7.81919 2.52598 7.76889 2.4002C7.71859 2.27442 7.64327 2.16017 7.54748 2.06438C7.45169 1.96859 7.33744 1.89326 7.21165 1.84296C7.08587 1.79267 6.95118 1.76845 6.81576 1.77179C6.68033 1.77512 6.547 1.80594 6.42384 1.86236C6.30069 1.91879 6.19028 1.99965 6.09932 2.10003C4.20199 3.99782 2.89007 6.40093 2.31978 9.02318C1.7495 11.6454 1.94488 14.3764 2.88266 16.8907C3.82044 19.4051 5.46111 21.5969 7.60929 23.2053C9.75747 24.8137 12.3226 25.7707 14.9993 25.9625V28H11.9993C11.7341 28 11.4798 28.1054 11.2922 28.2929C11.1047 28.4805 10.9993 28.7348 10.9993 29C10.9993 29.2652 11.1047 29.5196 11.2922 29.7071C11.4798 29.8947 11.7341 30 11.9993 30H19.9993C20.2645 30 20.5189 29.8947 20.7064 29.7071C20.894 29.5196 20.9993 29.2652 20.9993 29C20.9993 28.7348 20.894 28.4805 20.7064 28.2929C20.5189 28.1054 20.2645 28 19.9993 28H16.9993V25.9625C20.3591 25.7272 23.5203 24.2842 25.8993 21.9Z" fill="#49536E"/>
</svg>
